<svg width="60" height="24" viewBox="0 0 60 24" fill="none" xmlns="http://www.w3.org/2000/svg">
<g clip-path="url(#clip0_545_693)">
<path d="M0.0621617 7.26296C0.154212 6.35211 0.366293 5.4714 0.762633 4.64603C1.93178 2.21147 3.83272 0.708452 6.45527 0.141152C6.9009 0.0447574 7.35511 0.000650023 7.81218 -0.000151928C7.96607 -0.000472709 7.96894 -0.000953887 7.96909 0.144199C7.96989 1.29853 7.96989 2.4527 7.96909 3.60703C7.96909 3.75218 7.96655 3.75218 7.81615 3.75683C5.85051 3.81762 4.21189 5.17628 3.80283 7.11236C3.31365 9.42759 4.76562 11.6031 6.94557 12.125C7.23015 12.1932 7.5187 12.2258 7.81059 12.2375C7.9675 12.2437 7.96925 12.2468 7.96925 12.4025C7.96989 13.5408 7.96989 14.6789 7.96925 15.8172C7.96925 15.9953 7.96242 16.0034 7.77434 15.998C6.62014 15.9646 5.51442 15.7144 4.48391 15.1861C2.20666 14.0184 0.779485 12.1719 0.20445 9.65935C0.125754 9.31564 0.0833062 8.96534 0.0548485 8.61377C0.0468995 8.43606 0.0621617 8.25578 0 8.08352V7.92313C0.059618 7.78311 0.0456276 7.63603 0.0383145 7.49007C0.0375196 7.47371 0.0160571 7.47211 0 7.4742V7.31381C0.00111287 7.33722 0.00969786 7.35711 0.0359298 7.34444C0.0699518 7.32792 0.0670901 7.29456 0.0620027 7.26264L0.0621617 7.26296Z" fill="white"/>
<path d="M0 8.0838C0.0623206 8.2559 0.0470584 8.43634 0.0548485 8.61405C0.0365657 8.59753 0.0182828 8.58117 0 8.56481C0 8.40442 0 8.24419 0 8.0838Z" fill="white"/>
<path d="M0 7.47448C0.0160571 7.47239 0.0375196 7.474 0.0383145 7.49036C0.0456276 7.63631 0.059618 7.78339 0 7.92341V7.47448Z" fill="white"/>
<path d="M0.0621617 7.26311C0.0670901 7.29487 0.0701107 7.32839 0.0360887 7.34491C0.00985684 7.35758 0.00127185 7.3377 0.000158981 7.31428C0 7.29279 0 7.27145 0 7.25012C0.0206676 7.25445 0.0413351 7.25878 0.0621617 7.26311Z" fill="white"/>
<path d="M10.5911 13.3738C10.5911 12.7271 10.5935 12.0806 10.5887 11.4339C10.5879 11.3174 10.6211 11.24 10.7087 11.1595C11.6082 10.333 12.0793 9.30487 12.114 8.07612C12.1182 7.92295 12.1173 7.92166 12.2768 7.9215C13.4318 7.92102 14.5868 7.92102 15.7417 7.9215C15.8969 7.9215 15.8987 7.92327 15.8969 8.08286C15.8815 9.41746 15.5573 10.6711 14.9235 11.8429C14.8759 11.9306 14.8217 12.0147 14.7723 12.1013C14.7244 12.1852 14.7376 12.2455 14.7767 12.3215C15.0044 12.7634 15.1885 13.2234 15.33 13.7008C16.6535 18.1652 13.926 22.8421 9.41318 23.817C6.0528 24.5429 2.76236 23.0614 1.0053 20.2404C0.889246 20.0541 0.883681 20.0861 1.07462 19.9747C2.02819 19.4184 2.98223 18.8632 3.93628 18.3076C3.95011 18.2996 3.96347 18.2909 3.9773 18.2832C4.09081 18.2202 4.09256 18.2189 4.16346 18.326C4.35551 18.6163 4.57443 18.8835 4.8315 19.1174C5.70876 19.915 6.73991 20.2914 7.91781 20.2308C9.88758 20.1296 11.5359 18.6114 11.8319 16.6442C11.9058 16.1529 11.8982 15.6648 11.8011 15.178C11.7958 15.1519 11.7923 15.1253 11.7858 15.0995C11.7748 15.0555 11.751 15.0345 11.7052 15.0577C11.6674 15.077 11.6292 15.0956 11.5917 15.1153C11.3143 15.2608 11.0292 15.3894 10.735 15.4964C10.6011 15.5452 10.5916 15.5392 10.5914 15.3941C10.5903 14.7208 10.5909 14.0473 10.5909 13.374L10.5911 13.3738Z" fill="white"/>
<path d="M24.7887 14.5763C24.7133 14.5891 24.6981 14.634 24.6717 14.665C24.338 15.0563 23.9119 15.2462 23.4041 15.2704C22.9256 15.2932 22.4903 15.1732 22.1048 14.8863C21.7584 14.6284 21.5142 14.2874 21.3684 13.8822C21.0843 13.0926 21.0801 12.2986 21.4011 11.5197C21.6822 10.8374 22.1832 10.3902 22.9119 10.2577C23.4726 10.1557 24.011 10.234 24.4733 10.6129C24.5559 10.6807 24.6283 10.7582 24.6951 10.8414C24.7084 10.8579 24.7243 10.8757 24.7475 10.8716C24.7796 10.8659 24.7865 10.8379 24.7869 10.8109C24.7893 10.6988 24.7887 10.5865 24.7914 10.4744C24.7954 10.316 24.8125 10.2946 24.9641 10.2937C25.34 10.2913 25.7162 10.2913 26.0922 10.2937C26.2381 10.2946 26.2558 10.3163 26.262 10.4611C26.2636 10.4985 26.2628 10.5359 26.2628 10.5732C26.2628 12.0958 26.2617 13.6184 26.2637 15.141C26.264 15.431 26.2443 15.717 26.165 15.9973C25.9211 16.8607 25.3598 17.3828 24.493 17.5663C23.9604 17.6788 23.4283 17.6503 22.9048 17.5043C22.5046 17.3927 22.152 17.1951 21.8639 16.8862C21.6014 16.6047 21.4461 16.2721 21.376 15.8961C21.349 15.751 21.3735 15.7179 21.515 15.7168C21.9068 15.7141 22.2987 15.7163 22.6908 15.7158C22.7591 15.7158 22.814 15.733 22.8451 15.8029C23.0072 16.1657 23.3213 16.2812 23.6806 16.3189C23.7486 16.326 23.8184 16.3242 23.8868 16.3186C24.3733 16.2793 24.6792 15.9972 24.7566 15.5139C24.8059 15.2068 24.7908 14.8977 24.7885 14.5761L24.7887 14.5763ZM23.7342 13.9575C24.1184 13.9527 24.4307 13.7905 24.614 13.4401C24.8609 12.968 24.8593 12.482 24.5928 12.0166C24.2229 11.3704 23.223 11.3779 22.8577 12.031C22.617 12.4612 22.6045 12.9135 22.8078 13.355C22.9838 13.7373 23.2938 13.9512 23.7342 13.9576V13.9575Z" fill="white"/>
<path d="M33.2217 10.8956C33.2217 10.7583 33.2211 10.6363 33.2217 10.5142C33.2231 10.3035 33.2316 10.2935 33.4338 10.2929C33.7888 10.2918 34.1438 10.2918 34.4987 10.2929C34.7015 10.2935 34.7115 10.3035 34.7115 10.5131C34.712 11.801 34.7118 13.089 34.7118 14.3769C34.7118 14.5907 34.7133 14.8045 34.7112 15.0181C34.7095 15.1859 34.6945 15.2015 34.5282 15.2023C34.1521 15.2039 33.7759 15.204 33.3998 15.2023C33.2413 15.2015 33.2276 15.1846 33.2217 15.0289C33.2165 14.891 33.2335 14.7521 33.21 14.6148C33.1483 14.599 33.1336 14.6494 33.1088 14.6784C32.7853 15.0566 32.368 15.2353 31.8817 15.2682C30.9278 15.3328 30.1639 14.8043 29.8233 13.9175C29.4922 13.0553 29.5071 12.1873 29.9198 11.3526C30.2187 10.7481 30.7077 10.3628 31.3766 10.2523C31.8122 10.1805 32.2427 10.2143 32.644 10.4337C32.8142 10.5269 32.9597 10.6475 33.0898 10.7903C33.1209 10.8244 33.1395 10.8733 33.2214 10.8953L33.2217 10.8956ZM33.2235 12.6931C33.2298 12.5858 33.2003 12.4235 33.1499 12.2649C33.0212 11.8607 32.6699 11.5693 32.284 11.5449C31.7931 11.5138 31.43 11.7128 31.2416 12.1414C31.0554 12.565 31.0612 12.9977 31.2729 13.4097C31.6055 14.0566 32.4766 14.1533 32.9446 13.6017C33.1503 13.3592 33.2206 13.0667 33.2235 12.6933V12.6931Z" fill="white"/>
<path d="M26.4776 2.68555C26.5426 2.65908 26.5725 2.61273 26.6086 2.57504C26.9398 2.23052 27.3493 2.07077 27.8182 2.05265C27.9714 2.04671 28.1255 2.04334 28.2779 2.0682C28.9455 2.17727 29.3884 2.56156 29.6267 3.19334C29.7294 3.46568 29.7806 3.75038 29.7822 4.0402C29.7871 4.96966 29.7851 5.89929 29.7843 6.82891C29.7843 7.00534 29.77 7.01881 29.5911 7.01961C29.2256 7.02122 28.8603 7.02138 28.4948 7.01945C28.3151 7.01849 28.2981 7.00069 28.2978 6.81255C28.2967 5.98991 28.2965 5.1671 28.2978 4.34446C28.2981 4.18295 28.2854 4.02448 28.2293 3.87163C28.1304 3.6025 27.9466 3.42591 27.6716 3.347C27.5372 3.30834 27.4007 3.29776 27.2624 3.31123C26.891 3.34732 26.621 3.57122 26.5159 3.93338C26.4681 4.09826 26.4514 4.26812 26.4516 4.44022C26.4525 5.2149 26.452 5.98943 26.4519 6.76411C26.4519 6.93445 26.3661 7.01983 26.1946 7.02025C25.8609 7.02057 25.5272 7.02122 25.1937 7.01993C24.9956 7.01913 24.9821 7.00678 24.9821 6.81383C24.9815 4.77303 24.9818 2.73238 24.9818 0.691574C24.9818 0.675535 24.9816 0.659496 24.9824 0.643457C24.9896 0.515465 25.0082 0.496058 25.1315 0.487878C25.1474 0.486916 25.1633 0.487076 25.1792 0.487076C25.5393 0.487076 25.8996 0.485954 26.2597 0.487558C26.4355 0.488359 26.4509 0.503276 26.4512 0.680347C26.4527 1.28935 26.4514 1.89835 26.4527 2.50735C26.4527 2.56381 26.4379 2.62396 26.4773 2.68571L26.4776 2.68555Z" fill="white"/>
<path d="M39.0437 22.8033C38.9701 22.8318 38.9453 22.8824 38.9102 22.9207C38.5709 23.291 38.1474 23.462 37.6525 23.4798C37.013 23.5028 36.4825 23.2748 36.0569 22.7956C35.8377 22.5486 35.6843 22.2615 35.5913 21.9463C35.349 21.1263 35.3698 20.3182 35.7603 19.5459C36.0569 18.9592 36.5337 18.5818 37.1801 18.4673C37.7353 18.369 38.2691 18.4397 38.7305 18.8099C38.8098 18.8736 38.879 18.9464 38.9434 19.025C38.9656 19.0521 38.9868 19.0959 39.0307 19.0771C39.0717 19.0596 39.0623 19.013 39.0631 18.977C39.0653 18.8702 39.0618 18.7632 39.066 18.6564C39.0709 18.5292 39.0917 18.5045 39.2168 18.5034C39.6036 18.5002 39.9903 18.5002 40.3771 18.5031C40.5103 18.504 40.5289 18.5284 40.5354 18.6656C40.537 18.6976 40.5362 18.7297 40.5362 18.7618C40.5362 20.226 40.5362 21.6904 40.5362 23.1546C40.5362 23.3257 40.4509 23.4115 40.2803 23.4118C39.9359 23.4121 39.5916 23.4131 39.2472 23.411C39.0828 23.4101 39.0709 23.3929 39.0639 23.2251C39.0582 23.0888 39.0828 22.9502 39.0435 22.8033H39.0437ZM38.0022 22.1665C38.3924 22.1597 38.7013 22.0001 38.8831 21.6565C39.1385 21.1741 39.1359 20.678 38.8539 20.2058C38.4819 19.583 37.5011 19.5905 37.1358 20.2322C36.8887 20.6661 36.8781 21.1227 37.0841 21.5707C37.2614 21.9564 37.5766 22.1595 38.0024 22.1665H38.0022Z" fill="white"/>
<path d="M33.272 21.3233C32.7847 21.3233 32.2974 21.3226 31.8101 21.3236C31.5963 21.3241 31.579 21.3481 31.6311 21.5577C31.7691 22.1129 32.2939 22.3953 32.8289 22.2027C32.989 22.1451 33.1208 22.049 33.2061 21.8995C33.2575 21.8094 33.327 21.7768 33.4273 21.7775C33.8405 21.7804 34.2535 21.7773 34.6667 21.7792C34.8376 21.78 34.857 21.808 34.8009 21.9687C34.589 22.5761 34.1902 23.0168 33.6065 23.2704C32.9333 23.5629 32.2419 23.5657 31.5618 23.3018C30.8427 23.0229 30.4016 22.4781 30.2089 21.7329C30.057 21.1455 30.0734 20.5579 30.2674 19.9801C30.5914 19.0149 31.4073 18.4898 32.3295 18.4393C32.7127 18.4183 33.0926 18.4377 33.4583 18.5714C34.24 18.8571 34.7101 19.4197 34.899 20.2292C34.9675 20.5228 34.9785 20.8216 34.9623 21.1215C34.9527 21.2982 34.9266 21.322 34.7497 21.3225C34.2572 21.3239 33.7645 21.3229 33.272 21.3229V21.3233ZM32.5044 20.4878V20.4873C32.7634 20.4873 33.0224 20.4895 33.2812 20.4863C33.4281 20.4846 33.4604 20.4426 33.4292 20.2987C33.3834 20.0868 33.278 19.9088 33.0928 19.7952C32.7777 19.6023 32.4443 19.5734 32.1084 19.7344C31.855 19.8558 31.7019 20.0687 31.6306 20.3402C31.5998 20.4576 31.619 20.4791 31.7434 20.4867C31.775 20.4886 31.8068 20.4876 31.8384 20.4876C32.0604 20.4876 32.2823 20.4876 32.5042 20.4876L32.5044 20.4878Z" fill="white"/>
<path d="M55.9604 21.3231C55.4943 21.3231 55.0282 21.3231 54.5622 21.3231C54.5199 21.3231 54.4773 21.3216 54.4352 21.3247C54.3123 21.3332 54.2914 21.3619 54.3131 21.4886C54.4131 22.0751 54.9631 22.4014 55.5204 22.2049C55.6808 22.1483 55.815 22.0546 55.8999 21.905C55.9547 21.8084 56.0286 21.7765 56.1342 21.7773C56.542 21.7805 56.9499 21.7783 57.3577 21.7789C57.3946 21.7789 57.4321 21.7807 57.4682 21.7876C57.5105 21.7957 57.5332 21.8257 57.5242 21.8694C57.5145 21.9162 57.5013 21.9627 57.4844 22.0075C57.2199 22.7111 56.724 23.1711 56.0119 23.3757C55.3472 23.5668 54.6903 23.5254 54.0628 23.2136C53.5492 22.9584 53.1959 22.5501 52.9967 22.0137C52.7585 21.3728 52.7385 20.7168 52.9401 20.0634C53.1994 19.2229 53.76 18.6938 54.6132 18.4997C55.1175 18.385 55.6259 18.394 56.1192 18.5611C56.9261 18.8345 57.4078 19.4086 57.5989 20.2383C57.6653 20.5269 57.6754 20.8204 57.6607 21.1147C57.6515 21.2984 57.6251 21.3221 57.4385 21.3226C56.946 21.3237 56.4533 21.3229 55.9607 21.3231H55.9604ZM55.2142 20.4878V20.4874C55.4625 20.4874 55.711 20.4892 55.9593 20.4868C56.1326 20.4852 56.1644 20.4422 56.1205 20.2711C56.0606 20.0371 55.929 19.8573 55.7118 19.7487C55.4701 19.6279 55.2169 19.5963 54.9571 19.6749C54.6191 19.7771 54.4145 20.0119 54.3261 20.3521C54.2999 20.4528 54.3202 20.4762 54.4216 20.4857C54.4584 20.489 54.4956 20.4876 54.5326 20.4876C54.7598 20.4876 54.9871 20.4876 55.2143 20.4876L55.2142 20.4878Z" fill="white"/>
<path d="M33.6554 4.91164C33.1841 4.91164 32.7128 4.91164 32.2415 4.9118C32.1993 4.9118 32.1566 4.9102 32.1145 4.91325C32.009 4.92079 31.9953 4.93779 32.0051 5.04092C32.0694 5.71889 32.8455 6.08923 33.4066 5.70942C33.4826 5.6581 33.5485 5.59459 33.5927 5.51503C33.6457 5.41992 33.7186 5.38415 33.8258 5.38512C34.2334 5.38913 34.6412 5.38512 35.049 5.38736C35.2209 5.38832 35.2496 5.42794 35.1895 5.59138C34.9875 6.14071 34.6374 6.56607 34.1086 6.81596C33.2585 7.21774 32.4131 7.18822 31.5975 6.71684C31.1117 6.43599 30.8072 5.99749 30.6447 5.46178C30.4633 4.86385 30.4571 4.25886 30.6409 3.6622C30.9252 2.73948 31.5632 2.21965 32.4986 2.05942C32.8468 1.99976 33.1943 2.01371 33.5406 2.08396C34.4802 2.27451 35.1526 2.97413 35.317 3.92733C35.3628 4.19293 35.3565 4.45934 35.3509 4.72607C35.3476 4.8924 35.3286 4.91004 35.1646 4.91068C34.6616 4.91229 34.1584 4.91132 33.6554 4.91132V4.91164ZM32.9236 4.07601C33.183 4.07601 33.4425 4.0781 33.7018 4.07505C33.8322 4.0736 33.8482 4.05035 33.828 3.91963C33.7934 3.69589 33.6783 3.52298 33.4945 3.39628C33.2972 3.26027 33.0748 3.22819 32.8422 3.24198C32.4724 3.26395 32.1409 3.53341 32.0415 3.893C31.9994 4.04522 32.0183 4.07376 32.177 4.07537C32.4258 4.07793 32.6746 4.07601 32.9234 4.07585L32.9236 4.07601Z" fill="white"/>
<path d="M15.4907 5.45983C15.4152 5.48886 15.3617 5.48084 15.3092 5.48084C13.8003 5.48132 12.2913 5.48132 10.7824 5.48116C10.5773 5.48116 10.5913 5.49544 10.5913 5.29238C10.5911 3.7382 10.5913 2.18418 10.5913 0.629997V0.44635C11.6658 0.82856 12.6005 1.405 13.4135 2.18129C14.3726 3.09696 15.0636 4.18633 15.4909 5.45999L15.4907 5.45983Z" fill="white"/>
<path d="M37.2771 10.8515C37.3189 10.8583 37.3323 10.8231 37.3531 10.8016C37.8005 10.3357 38.3534 10.1809 38.9771 10.2512C39.558 10.3166 40.0052 10.6024 40.2949 11.1174C40.4758 11.439 40.5628 11.7921 40.5644 12.1616C40.5688 13.1074 40.5672 14.0532 40.5679 14.9992C40.5679 15.0153 40.568 15.0313 40.5672 15.0473C40.5598 15.1771 40.5431 15.2002 40.4179 15.2011C40.0259 15.204 39.6339 15.204 39.2418 15.2008C39.1248 15.1999 39.1073 15.1764 39.1003 15.0571C39.0974 15.0092 39.0989 14.9609 39.0989 14.9129C39.0989 14.122 39.0984 13.3312 39.0989 12.5403C39.099 12.3228 39.0598 12.1157 38.9548 11.9232C38.8585 11.7465 38.7157 11.6254 38.5277 11.5603C38.3162 11.4873 38.0983 11.4851 37.8851 11.5391C37.5294 11.6296 37.293 11.947 37.2599 12.3592C37.2531 12.4442 37.2544 12.53 37.2544 12.6155C37.2541 13.3743 37.2542 14.1331 37.2541 14.8919C37.2541 14.9347 37.2547 14.9774 37.2537 15.0202C37.2496 15.1867 37.2367 15.2016 37.0684 15.2023C36.6922 15.2039 36.3161 15.204 35.9399 15.2019C35.7836 15.2011 35.7665 15.184 35.7657 15.0255C35.7638 14.566 35.7647 14.1063 35.7647 13.6468C35.7647 12.6315 35.7647 11.6161 35.7647 10.6008C35.7647 10.5527 35.7636 10.5046 35.7655 10.4566C35.7712 10.3182 35.7892 10.2948 35.9224 10.294C36.3145 10.2913 36.7065 10.2913 37.0986 10.294C37.2259 10.295 37.2471 10.3185 37.2525 10.4432C37.2564 10.5338 37.252 10.6249 37.255 10.7157C37.2564 10.7614 37.2404 10.8117 37.277 10.8515H37.2771Z" fill="white"/>
<path d="M25.1069 20.2727C24.9056 20.2727 24.7042 20.2682 24.5029 20.2745C24.3886 20.278 24.3177 20.2387 24.2649 20.1324C24.1322 19.8645 23.908 19.7338 23.6131 19.7219C23.2371 19.7069 22.9756 19.8778 22.8163 20.2177C22.6928 20.4812 22.6694 20.7627 22.6775 21.0472C22.6813 21.1799 22.6986 21.3133 22.729 21.4441C22.7621 21.5863 22.8195 21.7167 22.8963 21.8402C23.1991 22.3273 24.0129 22.3195 24.2603 21.7926C24.3131 21.6801 24.3859 21.6384 24.5083 21.6402C24.9109 21.6461 25.3136 21.6425 25.7163 21.6425C25.7322 21.6425 25.7481 21.6423 25.764 21.6433C25.8891 21.6516 25.9067 21.6715 25.8745 21.7911C25.8285 21.9616 25.7668 22.127 25.6843 22.2831C25.3544 22.9075 24.8427 23.2924 24.1567 23.4266C23.5769 23.5402 23.005 23.5047 22.4635 23.2439C21.8126 22.9304 21.4228 22.4001 21.2524 21.7034C21.1273 21.1914 21.1347 20.6756 21.2634 20.164C21.5173 19.1545 22.3812 18.4648 23.4147 18.4363C23.8428 18.4244 24.2621 18.4555 24.6584 18.6367C25.3067 18.9333 25.6924 19.4493 25.877 20.1305C25.9069 20.241 25.887 20.2684 25.7745 20.2706C25.552 20.275 25.3295 20.2719 25.1069 20.2719V20.2729V20.2727Z" fill="white"/>
<path d="M49.865 21.9213C49.9144 21.853 49.9256 21.7778 49.9466 21.7077C50.2394 20.7314 50.5305 19.7544 50.8232 18.7781C50.9141 18.475 50.8857 18.5028 51.1895 18.5016C51.5284 18.5004 51.8672 18.5013 52.2062 18.5015C52.2432 18.5015 52.2804 18.5004 52.3173 18.5029C52.444 18.5119 52.4674 18.5411 52.4256 18.6667C52.3192 18.9855 52.2081 19.3028 52.0974 19.6202C51.7058 20.7437 51.3138 21.8671 50.9218 22.9905C50.8866 23.0912 50.8473 23.1905 50.8144 23.292C50.7877 23.3744 50.7369 23.4133 50.6501 23.4115C50.5283 23.4091 50.4065 23.4118 50.2847 23.4118C49.9035 23.4118 49.5222 23.4123 49.141 23.4117C48.9423 23.4113 48.9418 23.4107 48.8787 23.2299C48.4127 21.895 47.9472 20.5599 47.4814 19.225C47.4146 19.0335 47.3453 18.8429 47.282 18.6503C47.2425 18.5294 47.259 18.5039 47.3833 18.5031C47.8175 18.5004 48.2517 18.5005 48.6858 18.5032C48.807 18.504 48.821 18.519 48.8652 18.6643C48.9925 19.0829 49.1173 19.5023 49.2427 19.9217C49.4323 20.5558 49.6211 21.1899 49.8105 21.8241C49.8195 21.8543 49.8227 21.8873 49.8652 21.9213H49.865Z" fill="white"/>
<path d="M41.8392 20.8951C41.8392 20.5452 41.8406 20.246 41.8387 19.9469C41.8376 19.7703 41.8222 19.7568 41.6467 19.7536C41.5619 19.752 41.477 19.7559 41.3926 19.7508C41.292 19.7447 41.2653 19.7238 41.2642 19.6274C41.2603 19.2962 41.2602 18.965 41.2642 18.634C41.2654 18.5292 41.2918 18.509 41.4029 18.5034C41.498 18.4986 41.5937 18.5039 41.6888 18.4997C41.813 18.4943 41.8365 18.4728 41.8381 18.3456C41.8416 18.0732 41.839 17.8007 41.84 17.5282C41.8408 17.3011 41.8497 17.2916 42.0711 17.291C42.4153 17.29 42.7595 17.2902 43.1039 17.291C43.3263 17.2915 43.3307 17.2966 43.3312 17.5287C43.3319 17.7905 43.3301 18.0522 43.332 18.314C43.3333 18.4825 43.3489 18.4987 43.5131 18.5005C43.7196 18.5028 43.9261 18.4995 44.1326 18.5021C44.2883 18.504 44.3078 18.5223 44.3091 18.6779C44.3117 18.9823 44.3118 19.2869 44.3088 19.5913C44.3075 19.7285 44.2856 19.7498 44.1508 19.7519C43.939 19.7551 43.7271 19.7517 43.5153 19.754C43.35 19.7557 43.3325 19.7718 43.3322 19.9386C43.3308 20.5262 43.3314 21.1137 43.3327 21.7014C43.3327 21.7543 43.3385 21.8084 43.35 21.86C43.3867 22.0233 43.485 22.1096 43.6651 22.1242C43.7915 22.1345 43.9191 22.1293 44.0462 22.1311C44.0885 22.1316 44.1311 22.1298 44.1732 22.1327C44.2838 22.1402 44.309 22.1582 44.3102 22.2647C44.3139 22.6012 44.3139 22.9377 44.3104 23.2742C44.3093 23.3852 44.2862 23.4105 44.1783 23.4093C43.8188 23.4049 43.4579 23.4399 43.1001 23.3796C42.964 23.3566 42.8304 23.3239 42.7023 23.2712C42.1576 23.0469 41.9338 22.601 41.8676 22.0451C41.8201 21.6458 41.8482 21.2448 41.8397 20.8953L41.8392 20.8951Z" fill="white"/>
<path d="M41.8326 12.7225C41.8326 12.3911 41.834 12.0598 41.832 11.7285C41.831 11.5627 41.8141 11.5483 41.6472 11.5451C41.5625 11.5435 41.4776 11.5465 41.393 11.5436C41.2595 11.539 41.2378 11.5194 41.2367 11.3808C41.234 11.0709 41.2337 10.7609 41.237 10.451C41.2385 10.3165 41.2615 10.2982 41.3995 10.2937C41.4843 10.291 41.569 10.2942 41.6537 10.2923C41.8165 10.2886 41.831 10.2745 41.8323 10.1027C41.834 9.8515 41.8327 9.60033 41.8329 9.34916C41.8329 9.30634 41.8315 9.26351 41.8345 9.22101C41.8421 9.11242 41.8609 9.09013 41.9684 9.085C42.0793 9.0797 42.1908 9.08259 42.3021 9.08243C42.5776 9.08243 42.8531 9.08099 43.1286 9.08323C43.3035 9.08452 43.3221 9.10264 43.3235 9.27586C43.3259 9.54836 43.3234 9.82103 43.3249 10.0935C43.3261 10.2769 43.3408 10.291 43.5275 10.2926C43.7235 10.2942 43.9195 10.2911 44.1156 10.2943C44.2617 10.2967 44.282 10.3162 44.2833 10.4624C44.286 10.767 44.286 11.0716 44.2833 11.3762C44.282 11.5228 44.2625 11.5417 44.1159 11.5439C43.9094 11.547 43.7027 11.5431 43.496 11.5463C43.3483 11.5486 43.3262 11.5677 43.3257 11.7122C43.3238 12.3268 43.3224 12.9413 43.327 13.5559C43.3288 13.787 43.4377 13.9002 43.6663 13.9169C43.814 13.9277 43.9628 13.9204 44.1111 13.9238C44.2661 13.9273 44.2852 13.9447 44.2863 14.1012C44.2885 14.4165 44.2887 14.7319 44.2857 15.047C44.2844 15.1734 44.2633 15.2016 44.1542 15.2007C43.7892 15.1973 43.4227 15.2332 43.0598 15.1686C42.7455 15.1126 42.4591 14.9987 42.2335 14.7582C42.1149 14.6318 42.0265 14.4879 41.9658 14.3262C41.8844 14.1094 41.8394 13.8844 41.8364 13.6528C41.8324 13.3429 41.8354 13.0328 41.8354 12.723C41.8345 12.723 41.8335 12.723 41.8326 12.723V12.7225Z" fill="white"/>
<path d="M21.6846 4.50346C21.6846 4.14466 21.6859 3.84024 21.6842 3.53582C21.6832 3.36084 21.6667 3.34608 21.492 3.34271C21.4072 3.34111 21.3223 3.34496 21.2379 3.33966C21.137 3.33325 21.1109 3.31304 21.1096 3.21552C21.1055 2.88432 21.1055 2.55311 21.1091 2.22207C21.1102 2.11669 21.1354 2.09776 21.2479 2.09231C21.343 2.08766 21.4387 2.09295 21.5338 2.08878C21.6589 2.08333 21.6807 2.06344 21.6831 1.93481C21.687 1.72662 21.6845 1.51811 21.6848 1.30977C21.6848 1.22428 21.6826 1.13863 21.6862 1.05346C21.6916 0.92531 21.7112 0.906865 21.8365 0.900129C21.8735 0.898204 21.9106 0.899166 21.9476 0.899166C22.2654 0.899166 22.583 0.899006 22.9008 0.899166C23.0843 0.899273 23.1762 0.994438 23.1764 1.18466C23.1765 1.42509 23.1749 1.66551 23.1772 1.90578C23.1787 2.0721 23.195 2.08782 23.3611 2.08958C23.5676 2.09167 23.7741 2.08862 23.9806 2.09119C24.1358 2.09311 24.1531 2.11011 24.1544 2.26906C24.1566 2.56819 24.1568 2.86732 24.1543 3.16644C24.1528 3.32138 24.1331 3.33983 23.9772 3.34175C23.7706 3.34432 23.5641 3.34095 23.3576 3.34335C23.1937 3.34528 23.1775 3.36132 23.1772 3.53053C23.1759 4.1182 23.1764 4.70571 23.1775 5.29338C23.1775 5.34647 23.1822 5.40036 23.1924 5.45233C23.221 5.59844 23.3067 5.68826 23.4554 5.71472C23.5339 5.72868 23.6121 5.73958 23.6919 5.73926C23.7873 5.73878 23.8826 5.73798 23.9779 5.74007C24.136 5.74343 24.1557 5.75979 24.157 5.91329C24.1595 6.22845 24.1593 6.54362 24.157 6.85879C24.156 6.98694 24.136 7.01565 24.0304 7.01725C23.6547 7.02303 23.2776 7.03923 22.9055 6.97202C22.1791 6.84098 21.7986 6.37842 21.7128 5.65009C21.6657 5.25055 21.6942 4.84958 21.6848 4.50362L21.6846 4.50346Z" fill="white"/>
<path d="M28.2305 19.2361C28.3627 19.0844 28.4808 18.9343 28.6337 18.817C28.8975 18.6149 29.1909 18.4911 29.5191 18.4513C29.6599 18.4343 29.6935 18.4608 29.6944 18.6024C29.6971 19.0295 29.6971 19.4568 29.6944 19.8839C29.6936 20.0198 29.6707 20.039 29.5343 20.043C29.3178 20.0496 29.1005 20.0317 28.8859 20.0804C28.5437 20.1582 28.322 20.3588 28.2375 20.7066C28.2135 20.8054 28.1952 20.9048 28.1956 21.0071C28.1957 21.0819 28.1943 21.1566 28.1943 21.2314C28.1943 21.8615 28.1943 22.4916 28.1943 23.1217C28.1943 23.1698 28.1957 23.218 28.193 23.2659C28.186 23.3856 28.1679 23.4093 28.0522 23.4103C27.6498 23.4132 27.2476 23.4132 26.8452 23.4101C26.7305 23.4093 26.7132 23.3849 26.7062 23.264C26.704 23.2268 26.7051 23.1893 26.7051 23.1519C26.7051 21.6888 26.7051 20.2257 26.7051 18.7626C26.7051 18.5892 26.7893 18.5023 26.9576 18.5019C27.2964 18.5015 27.6352 18.5012 27.9739 18.502C28.1871 18.5027 28.193 18.5095 28.1943 18.7309C28.1949 18.8537 28.1933 18.9766 28.1952 19.0993C28.1959 19.1402 28.1838 19.1848 28.2307 19.2364L28.2305 19.2361Z" fill="white"/>
<path d="M27.3408 12.7494C27.3408 12.0338 27.3408 11.3181 27.3408 10.6026C27.3408 10.5599 27.3401 10.5171 27.3412 10.4745C27.3457 10.3107 27.3602 10.2942 27.5288 10.2934C27.8994 10.2916 28.27 10.2916 28.6407 10.2934C28.8144 10.2942 28.8296 10.3094 28.8296 10.4889C28.8304 11.995 28.8304 13.501 28.8296 15.0069C28.8296 15.1893 28.8169 15.2018 28.6422 15.2026C28.2716 15.2042 27.901 15.2042 27.5303 15.2026C27.3544 15.2018 27.3417 15.1891 27.3414 15.0085C27.3403 14.2555 27.3409 13.5025 27.3409 12.7494H27.3408Z" fill="white"/>
<path d="M45.136 20.9418C45.136 20.2259 45.136 19.5099 45.136 18.7939C45.136 18.7512 45.1349 18.7084 45.137 18.6657C45.1434 18.5284 45.1621 18.5041 45.2952 18.5031C45.6818 18.5002 46.0686 18.5002 46.4553 18.5034C46.5807 18.5044 46.5984 18.5284 46.6053 18.6569C46.6074 18.6943 46.6063 18.7317 46.6063 18.769C46.6063 20.2278 46.6063 21.6864 46.6063 23.1451C46.6063 23.3227 46.5191 23.4117 46.3448 23.412C46.0058 23.4122 45.6667 23.4131 45.3278 23.4114C45.1519 23.4104 45.137 23.3963 45.1368 23.2181C45.1356 22.4593 45.1364 21.7006 45.1362 20.9418H45.136Z" fill="white"/>
<path d="M59.1227 23.4767C59.0053 23.4826 58.8909 23.468 58.7796 23.4278C58.4657 23.3145 58.2556 23.0451 58.2429 22.7232C58.2289 22.3695 58.3762 22.0984 58.6915 21.9417C58.9661 21.8054 59.2545 21.802 59.5351 21.9331C59.8858 22.0967 60.0591 22.4579 59.9818 22.847C59.9136 23.1907 59.5994 23.4553 59.2336 23.4764C59.1967 23.4784 59.1597 23.4767 59.1227 23.4767Z" fill="white"/>
<path d="M45.866 17.9913C45.5519 17.9822 45.2838 17.8752 45.1092 17.5988C44.8414 17.1748 45.0277 16.6123 45.4935 16.4281C45.7399 16.3308 45.99 16.3297 46.2382 16.4237C46.5418 16.5387 46.7483 16.8373 46.7549 17.1651C46.7612 17.4821 46.5658 17.7806 46.2679 17.909C46.1398 17.9642 46.0064 17.9942 45.8662 17.9913H45.866Z" fill="white"/>
<path d="M28.0843 8.14846C28.498 8.15022 28.8222 8.37236 28.9257 8.71817C29.0832 9.24392 28.7423 9.72718 28.1776 9.77834C28.011 9.79342 27.8495 9.7692 27.6962 9.70312C27.4031 9.57673 27.2327 9.35475 27.2112 9.03045C27.1881 8.68272 27.3271 8.41952 27.6355 8.25383C27.7788 8.17685 27.9323 8.14333 28.0843 8.14846Z" fill="white"/>
</g>
<defs>
<clipPath id="clip0_545_693">
<rect width="60" height="24" fill="white"/>
</clipPath>
</defs>
</svg>
