<svg width="105" height="24" viewBox="0 0 105 24" fill="none" xmlns="http://www.w3.org/2000/svg">
<g clip-path="url(#clip0_545_719)">
<path d="M37.6824 15.8518L42.8249 1.67773H45.3773L50.5198 15.8518H47.8923L46.7453 12.5751H41.4277L40.2807 15.8518H37.6907H37.6824ZM42.1617 10.482H46.0196L44.3847 5.90546C44.2679 5.53584 44.1303 5.11224 44.0928 4.81738C44.0344 5.08732 43.9176 5.51508 43.78 5.90546L42.1617 10.482Z" fill="white"/>
<path d="M50.9868 15.8518V6.27093H53.1681L53.3641 7.39639C53.8521 6.60317 54.8239 5.98022 56.2086 5.98022C57.6683 5.98022 58.6818 6.69869 59.1865 7.80338C59.6744 6.69869 60.8047 5.98022 62.2644 5.98022C64.6 5.98022 65.8846 7.37562 65.8846 9.585V15.8477H63.5282V10.2038C63.5282 8.82916 62.79 8.1107 61.6597 8.1107C60.5294 8.1107 59.6327 8.84577 59.6327 10.4197V15.8477H57.2554V10.1872C57.2554 8.84993 56.5339 8.13146 55.4036 8.13146C54.2734 8.13146 53.36 8.87069 53.36 10.4197V15.8477H50.9827L50.9868 15.8518Z" fill="white"/>
<path d="M67.2485 6.27093H69.4507L69.605 7.72447C70.1889 6.61978 71.4568 5.98022 72.9165 5.98022C75.6233 5.98022 77.4167 7.93627 77.4167 10.943C77.4167 13.9498 75.7818 16.101 72.9165 16.101C71.4735 16.101 70.2306 15.5404 69.6258 14.5686V20.2914H67.2485V6.27093ZM72.3493 13.9705C74.0259 13.9705 75.0186 12.7703 75.0186 11.0635C75.0186 9.35659 74.0259 8.13562 72.3493 8.13562C70.6727 8.13562 69.6425 9.33998 69.6425 11.0635C69.6425 12.7869 70.7144 13.9705 72.3493 13.9705Z" fill="white"/>
<path d="M78.3718 15.8518V1.42444H80.7283V15.8518H78.3718Z" fill="white"/>
<path d="M81.9712 2.91946C81.9712 2.12209 82.6135 1.5033 83.4309 1.5033C84.2484 1.5033 84.8532 2.12209 84.8532 2.91946C84.8532 3.71683 84.2109 4.35638 83.4309 4.35638C82.6135 4.35638 81.9712 3.71683 81.9712 2.91946ZM82.2423 6.27506H84.6196V15.856H82.2423V6.2709V6.27506Z" fill="white"/>
<path d="M86.5297 6.27095V5.10812C86.5297 2.50836 87.9144 1.42444 89.9956 1.42444C90.3668 1.42444 90.813 1.4452 91.2218 1.51996V3.5383H90.3835C89.1781 3.5383 88.882 4.15709 88.882 5.10812V6.27095H91.1801V8.24776H88.882V15.8477H86.5255V8.25192H85.1409V6.2751H86.5255L86.5297 6.27095Z" fill="white"/>
<path d="M90.8923 18.3145H92.3146C93.2488 18.3145 93.8327 18.1027 94.2414 16.9773L94.5125 16.2588L90.6379 6.27094H93.1487L95.6219 13.2521L98.2328 6.27094H100.685L95.9723 17.9823C95.2507 19.7639 94.2373 20.5032 92.6607 20.5032C91.9976 20.5032 91.4137 20.4242 90.8882 20.2914V18.3145H90.8923Z" fill="white"/>
<path d="M36.0141 15.8519C31.9101 15.7065 25.3037 15.8685 17.4878 17.5712C11.9408 18.7756 5.15917 21.6037 0 24L21.7419 3.32654L36.0141 15.856V15.8519Z" fill="white" fill-opacity="0.25"/>
<path d="M34.1456 9.97958C30.075 10.5153 23.5854 11.7778 16.1657 14.7555C10.9022 16.8652 4.68788 20.7815 0 24L17.9716 0L34.1456 9.97958Z" fill="white"/>
<path d="M101.177 2.31738H102.462V2.4835H101.907V4.10316H101.728V2.4835H101.177V2.31738Z" fill="white"/>
<path d="M102.708 4.09901V2.31738H102.887L103.542 3.8872L104.197 2.31738H104.376V4.09901H104.197V3.2518C104.197 2.94033 104.201 2.80328 104.214 2.68284L103.63 4.09901H103.459L102.875 2.69115C102.883 2.7576 102.892 2.95694 102.892 3.22688V4.09901H102.712H102.708Z" fill="white"/>
</g>
<defs>
<clipPath id="clip0_545_719">
<rect width="104.372" height="24" fill="white"/>
</clipPath>
</defs>
</svg>
